<svg width="999" height="999" viewBox="0 0 999 999" fill="none" xmlns="http://www.w3.org/2000/svg">
<path d="M742.34 222.194C760.305 240.165 783.155 252.46 808.05 257.551C832.945 262.643 858.788 260.306 882.366 250.832L982.627 351.038C1003.08 371.573 1003.11 404.817 982.516 425.408L425.102 982.489C415.221 992.326 401.846 997.848 387.903 997.848C373.96 997.848 360.585 992.326 350.704 982.489L250.637 882.256C260.067 858.666 262.38 832.83 257.29 807.94C252.201 783.051 239.932 760.197 221.999 742.202C204.024 724.238 181.169 711.948 156.272 706.857C131.374 701.766 105.529 704.098 81.9452 713.564L16.4829 648.074C11.5929 643.194 7.71339 637.398 5.06637 631.017C2.41934 624.637 1.05682 617.797 1.05682 610.889C1.05682 603.981 2.41934 597.14 5.06637 590.76C7.71339 584.379 11.5929 578.583 16.4829 573.704L573.814 16.5391C578.693 11.6503 584.489 7.77271 590.869 5.12873C597.25 2.48475 604.09 1.12639 610.997 1.13155C617.903 1.1367 624.741 2.50527 631.118 5.15878C637.494 7.81228 643.285 11.6985 648.156 16.5946L713.674 82.1123C704.206 105.703 701.875 131.555 706.971 156.458C712.067 181.361 724.366 204.219 742.34 222.194Z" fill="#0087D2"/>
<path d="M150.406 514.124L90.771 573.731C80.9179 583.593 75.3763 596.959 75.3607 610.899C75.3451 624.839 80.8567 638.217 90.6877 648.101L105.728 663.114C132.428 655.934 160.549 655.92 187.257 663.072C213.964 670.224 238.315 684.289 257.854 703.851C277.406 723.39 291.463 747.737 298.61 774.439C305.757 801.141 305.741 829.255 298.563 855.949L350.677 908.202C360.56 918.054 373.948 923.581 387.902 923.571C401.856 923.56 415.235 918.013 425.103 908.146L485.848 847.457L150.406 514.124ZM525.613 807.719L807.498 526.001L471.973 192.668L190.199 474.386L525.613 807.719V807.719ZM580.836 419.413C643.135 481.24 657.01 568.042 611.944 613.358C566.794 658.729 479.798 645.298 417.666 583.527C355.534 521.7 341.686 434.842 386.752 389.527C431.846 344.294 518.704 357.614 580.836 419.413V419.413ZM908.286 351.037L856.088 298.84C829.384 306.019 801.259 306.033 774.547 298.881C747.835 291.73 723.48 277.664 703.935 258.103C684.354 238.564 670.272 214.207 663.11 187.488C655.948 160.769 655.959 132.635 663.142 105.922L648.13 90.7702C638.241 80.9696 624.878 75.478 610.955 75.4936C597.033 75.5092 583.682 81.0307 573.815 90.8535L511.766 152.902L847.319 486.208L908.258 425.296C928.793 404.845 928.793 371.572 908.286 351.037V351.037Z" fill="#47BDFF"/>
</svg>
